<svg xmlns="http://www.w3.org/2000/svg" viewBox="0 0 596.49 716.46" role="img" aria-label="Jay-Jay">
    <path fill="#5f69e1" d="M4.19,670.31c-.08-.38-.14-.77-.2-1.16-3.67-25.75-4.29-45.12-3.88-50.77.48-6.62,4.22-13.3,9.62-17.71l123.55-110.59c12.95-10.56,20.02-26.34,20-43.1l-1.02-207.46c0-12.72-8.75-38.53-19.13-45.09l-78.03-44.51c-17.33-10.95-28.38-31.43-28.47-51.88l-.38-82.24c-.02-4.56,4.97-11.62,8.51-13.62s13.9-3.26,17.37-.88l167.61,115.18c24.44,16.79,41.94,49.15,41.95,79.24l.17,285.25c.02,32.47-17.9,64.23-42.78,84.35l-175.16,145.18c-6.45,5.21-13.04,6.94-19.33,5.46-7.35-1.72-12.82-7.9-14.31-15.3l-6.1-30.35Z"/>
    <path fill="#5f69e1" d="M592.3,670.31c.08-.38.14-.77.2-1.16,3.67-25.75,4.29-45.12,3.88-50.77-.48-6.62-4.22-13.3-9.62-17.71l-123.55-110.59c-12.95-10.56-20.02-26.34-20-43.1l1.02-207.46c0-12.72,8.75-38.53,19.13-45.09l78.03-44.51c17.33-10.95,28.38-31.43,28.47-51.88l.38-82.24c.02-4.56-4.97-11.62-8.51-13.62s-13.9-3.26-17.37-.88l-167.61,115.18c-24.44,16.79-41.94,49.15-41.95,79.24l-.17,285.25c-.02,32.47,17.9,64.23,42.78,84.35l175.16,145.18c6.45,5.21,13.04,6.94,19.33,5.46,7.35-1.72,12.82-7.9,14.31-15.3l6.1-30.35Z"/>
</svg>
